<svg width="159" height="21" viewBox="0 0 159 21" fill="none" xmlns="http://www.w3.org/2000/svg">
<path d="M10.935 15.815H5.13L3.699 20H0L6.804 0.964999H9.531L16.335 20H12.447L10.935 15.815ZM6.075 12.845H10.125L8.721 8.633L8.154 5.663H8.019L7.452 8.66L6.075 12.845ZM17.8867 1.1H21.3967V7.58H21.5047C21.8827 7.148 22.3687 6.806 22.9627 6.554C23.5567 6.302 24.2137 6.176 24.9337 6.176C26.5537 6.176 27.7867 6.734 28.6327 7.85C29.4967 8.948 29.9287 10.631 29.9287 12.899C29.9287 15.329 29.3257 17.174 28.1197 18.434C26.9317 19.694 25.2937 20.324 23.2057 20.324C22.0537 20.324 21.0007 20.225 20.0467 20.027C19.0927 19.847 18.3727 19.64 17.8867 19.406V1.1ZM23.9077 9.146C23.2597 9.146 22.7287 9.317 22.3147 9.659C21.9187 9.983 21.6127 10.46 21.3967 11.09V16.976C21.6847 17.12 21.9907 17.219 22.3147 17.273C22.6567 17.327 23.0167 17.354 23.3947 17.354C24.3487 17.354 25.0687 17.012 25.5547 16.328C26.0587 15.626 26.3107 14.519 26.3107 13.007C26.3107 10.433 25.5097 9.146 23.9077 9.146ZM40.6242 20V12.332C40.6242 11.234 40.4712 10.442 40.1652 9.956C39.8592 9.47 39.3012 9.227 38.4912 9.227C37.8972 9.227 37.3482 9.434 36.8442 9.848C36.3582 10.244 36.0342 10.757 35.8722 11.387V20H32.3622V1.1H35.8722V8.012H35.9802C36.4122 7.436 36.9432 6.977 37.5732 6.635C38.2032 6.293 39.0042 6.122 39.9762 6.122C40.6602 6.122 41.2632 6.212 41.7852 6.392C42.3072 6.572 42.7392 6.869 43.0812 7.283C43.4412 7.697 43.7022 8.264 43.8642 8.984C44.0442 9.686 44.1342 10.559 44.1342 11.603V20H40.6242ZM47.3721 6.5H50.8821V20H47.3721V6.5ZM46.8591 2.693C46.8591 2.171 47.0481 1.73 47.4261 1.37C47.8221 0.991999 48.3621 0.802999 49.0461 0.802999C49.7301 0.802999 50.2791 0.991999 50.6931 1.37C51.1251 1.73 51.3411 2.171 51.3411 2.693C51.3411 3.215 51.1251 3.656 50.6931 4.016C50.2791 4.358 49.7301 4.529 49.0461 4.529C48.3621 4.529 47.8221 4.358 47.4261 4.016C47.0481 3.656 46.8591 3.215 46.8591 2.693ZM59.9151 16.274C59.9151 15.914 59.7621 15.626 59.4561 15.41C59.1501 15.194 58.7721 14.996 58.3221 14.816C57.8721 14.636 57.3771 14.456 56.8371 14.276C56.2971 14.078 55.8021 13.817 55.3521 13.493C54.9021 13.151 54.5241 12.728 54.2181 12.224C53.9121 11.702 53.7591 11.036 53.7591 10.226C53.7591 8.894 54.1551 7.877 54.9471 7.175C55.7391 6.473 56.8821 6.122 58.3761 6.122C59.4021 6.122 60.3291 6.23 61.1571 6.446C61.9851 6.662 62.6331 6.905 63.1011 7.175L62.3181 9.713C61.9041 9.551 61.3821 9.38 60.7521 9.2C60.1221 9.02 59.4831 8.93 58.8351 8.93C57.7911 8.93 57.2691 9.335 57.2691 10.145C57.2691 10.469 57.4221 10.73 57.7281 10.928C58.0341 11.126 58.4121 11.315 58.8621 11.495C59.3121 11.657 59.8071 11.837 60.3471 12.035C60.8871 12.233 61.3821 12.494 61.8321 12.818C62.2821 13.124 62.6601 13.529 62.9661 14.033C63.2721 14.537 63.4251 15.185 63.4251 15.977C63.4251 17.345 62.9841 18.425 62.1021 19.217C61.2381 19.991 59.9331 20.378 58.1871 20.378C57.2331 20.378 56.3331 20.252 55.4871 20C54.6591 19.766 53.9841 19.487 53.4621 19.163L54.4341 16.544C54.8481 16.778 55.3971 17.012 56.0811 17.246C56.7651 17.462 57.4671 17.57 58.1871 17.57C58.7091 17.57 59.1231 17.471 59.4291 17.273C59.7531 17.075 59.9151 16.742 59.9151 16.274ZM73.9787 20V12.332C73.9787 11.234 73.8257 10.442 73.5197 9.956C73.2137 9.47 72.6557 9.227 71.8457 9.227C71.2517 9.227 70.7027 9.434 70.1987 9.848C69.7127 10.244 69.3887 10.757 69.2267 11.387V20H65.7167V1.1H69.2267V8.012H69.3347C69.7667 7.436 70.2977 6.977 70.9277 6.635C71.5577 6.293 72.3587 6.122 73.3307 6.122C74.0147 6.122 74.6177 6.212 75.1397 6.392C75.6617 6.572 76.0937 6.869 76.4357 7.283C76.7957 7.697 77.0567 8.264 77.2187 8.984C77.3987 9.686 77.4887 10.559 77.4887 11.603V20H73.9787ZM91.2296 18.839C90.6896 19.271 89.9516 19.64 89.0156 19.946C88.0976 20.234 87.1166 20.378 86.0726 20.378C83.8946 20.378 82.3016 19.748 81.2936 18.488C80.2856 17.21 79.7816 15.464 79.7816 13.25C79.7816 10.874 80.3486 9.092 81.4826 7.904C82.6166 6.716 84.2096 6.122 86.2616 6.122C86.9456 6.122 87.6116 6.212 88.2596 6.392C88.9076 6.572 89.4836 6.869 89.9876 7.283C90.4916 7.697 90.8966 8.255 91.2026 8.957C91.5086 9.659 91.6616 10.532 91.6616 11.576C91.6616 11.954 91.6346 12.359 91.5806 12.791C91.5446 13.223 91.4816 13.673 91.3916 14.141H83.2916C83.3456 15.275 83.6336 16.13 84.1556 16.706C84.6956 17.282 85.5596 17.57 86.7476 17.57C87.4856 17.57 88.1426 17.462 88.7186 17.246C89.3126 17.012 89.7626 16.778 90.0686 16.544L91.2296 18.839ZM86.2076 8.93C85.2896 8.93 84.6056 9.209 84.1556 9.767C83.7236 10.307 83.4626 11.036 83.3726 11.954H88.3946C88.4666 10.982 88.3136 10.235 87.9356 9.713C87.5756 9.191 86.9996 8.93 86.2076 8.93ZM98.5956 14.411H97.6506V20H94.1406V1.1H97.6506V12.251L98.4606 11.873L101.539 6.5H105.4L102.16 11.63L100.783 12.656L102.268 13.709L105.913 20H101.89L98.5956 14.411ZM119.004 16.274C119.004 15.914 118.851 15.626 118.545 15.41C118.239 15.194 117.861 14.996 117.411 14.816C116.961 14.636 116.466 14.456 115.926 14.276C115.386 14.078 114.891 13.817 114.441 13.493C113.991 13.151 113.613 12.728 113.307 12.224C113.001 11.702 112.848 11.036 112.848 10.226C112.848 8.894 113.244 7.877 114.036 7.175C114.828 6.473 115.971 6.122 117.465 6.122C118.491 6.122 119.418 6.23 120.246 6.446C121.074 6.662 121.722 6.905 122.19 7.175L121.407 9.713C120.993 9.551 120.471 9.38 119.841 9.2C119.211 9.02 118.572 8.93 117.924 8.93C116.88 8.93 116.358 9.335 116.358 10.145C116.358 10.469 116.511 10.73 116.817 10.928C117.123 11.126 117.501 11.315 117.951 11.495C118.401 11.657 118.896 11.837 119.436 12.035C119.976 12.233 120.471 12.494 120.921 12.818C121.371 13.124 121.749 13.529 122.055 14.033C122.361 14.537 122.514 15.185 122.514 15.977C122.514 17.345 122.073 18.425 121.191 19.217C120.327 19.991 119.022 20.378 117.276 20.378C116.322 20.378 115.422 20.252 114.576 20C113.748 19.766 113.073 19.487 112.551 19.163L113.523 16.544C113.937 16.778 114.486 17.012 115.17 17.246C115.854 17.462 116.556 17.57 117.276 17.57C117.798 17.57 118.212 17.471 118.518 17.273C118.842 17.075 119.004 16.742 119.004 16.274ZM124.158 13.25C124.158 10.964 124.716 9.209 125.832 7.985C126.948 6.743 128.514 6.122 130.53 6.122C131.61 6.122 132.546 6.293 133.338 6.635C134.13 6.977 134.787 7.463 135.309 8.093C135.831 8.705 136.218 9.452 136.47 10.334C136.74 11.216 136.875 12.188 136.875 13.25C136.875 15.536 136.317 17.3 135.201 18.542C134.103 19.766 132.546 20.378 130.53 20.378C129.45 20.378 128.514 20.207 127.722 19.865C126.93 19.523 126.264 19.046 125.724 18.434C125.202 17.804 124.806 17.048 124.536 16.166C124.284 15.284 124.158 14.312 124.158 13.25ZM127.776 13.25C127.776 13.844 127.83 14.393 127.938 14.897C128.046 15.401 128.208 15.842 128.424 16.22C128.64 16.598 128.919 16.895 129.261 17.111C129.621 17.309 130.044 17.408 130.53 17.408C131.448 17.408 132.132 17.075 132.582 16.409C133.032 15.743 133.257 14.69 133.257 13.25C133.257 12.008 133.05 11.009 132.636 10.253C132.222 9.479 131.52 9.092 130.53 9.092C129.666 9.092 128.991 9.416 128.505 10.064C128.019 10.712 127.776 11.774 127.776 13.25ZM147.57 20V12.332C147.57 11.234 147.408 10.442 147.084 9.956C146.778 9.47 146.247 9.227 145.491 9.227C144.825 9.227 144.258 9.425 143.79 9.821C143.34 10.199 143.016 10.676 142.818 11.252V20H139.308V6.5H142.089L142.494 8.282H142.602C143.016 7.706 143.565 7.202 144.249 6.77C144.933 6.338 145.815 6.122 146.895 6.122C147.561 6.122 148.155 6.212 148.677 6.392C149.199 6.572 149.64 6.869 150 7.283C150.36 7.697 150.63 8.264 150.81 8.984C150.99 9.686 151.08 10.559 151.08 11.603V20H147.57ZM154.317 6.5H157.827V20H154.317V6.5ZM153.804 2.693C153.804 2.171 153.993 1.73 154.371 1.37C154.767 0.991999 155.307 0.802999 155.991 0.802999C156.675 0.802999 157.224 0.991999 157.638 1.37C158.07 1.73 158.286 2.171 158.286 2.693C158.286 3.215 158.07 3.656 157.638 4.016C157.224 4.358 156.675 4.529 155.991 4.529C155.307 4.529 154.767 4.358 154.371 4.016C153.993 3.656 153.804 3.215 153.804 2.693Z" fill="url(#paint0_linear)"/>
<defs>
<linearGradient id="paint0_linear" x1="-8.77687e-07" y1="13" x2="189" y2="12" gradientUnits="userSpaceOnUse">
<stop stop-color="#64B5F6"/>
<stop offset="1" stop-color="#64B5F6"/>
</linearGradient>
</defs>
</svg>
